<svg xmlns="http://www.w3.org/2000/svg" xmlns:xlink="http://www.w3.org/1999/xlink" width="307" zoomAndPan="magnify" viewBox="0 0 230.25 209.999996" height="280" preserveAspectRatio="xMidYMid meet" version="1.0"><defs><g/><clipPath id="de4cc03ff6"><path d="M 34.328125 21.945312 L 206.566406 21.945312 L 206.566406 194.183594 L 34.328125 194.183594 Z M 34.328125 21.945312 " clip-rule="nonzero"/></clipPath><clipPath id="f217209a86"><path d="M 61.242188 21.945312 L 179.65625 21.945312 C 194.519531 21.945312 206.566406 33.992188 206.566406 48.855469 L 206.566406 167.269531 C 206.566406 182.132812 194.519531 194.183594 179.65625 194.183594 L 61.242188 194.183594 C 46.378906 194.183594 34.328125 182.132812 34.328125 167.269531 L 34.328125 48.855469 C 34.328125 33.992188 46.378906 21.945312 61.242188 21.945312 Z M 61.242188 21.945312 " clip-rule="nonzero"/></clipPath></defs><g clip-path="url(#de4cc03ff6)"><g clip-path="url(#f217209a86)"><path fill="#b37bc6" d="M 34.328125 21.945312 L 206.566406 21.945312 L 206.566406 194.183594 L 34.328125 194.183594 Z M 34.328125 21.945312 " fill-opacity="1" fill-rule="nonzero"/></g></g><g fill="#f0f5f7" fill-opacity="1"><g transform="translate(61.286421, 124.658453)"><g><path d="M 81.515625 -75.28125 C 82.085938 -74.945312 82.457031 -74.570312 82.625 -74.15625 C 82.800781 -73.75 82.890625 -73.398438 82.890625 -73.109375 C 82.890625 -72.628906 82.671875 -72.039062 82.234375 -71.34375 C 81.796875 -70.644531 80.890625 -69.773438 79.515625 -68.734375 C 78.140625 -67.691406 76.03125 -66.398438 73.1875 -64.859375 C 72.851562 -64.671875 72.503906 -64.632812 72.140625 -64.75 C 71.773438 -64.875 71.5 -65.101562 71.3125 -65.4375 C 71.113281 -65.78125 71.070312 -66.128906 71.1875 -66.484375 C 71.3125 -66.847656 71.546875 -67.128906 71.890625 -67.328125 C 74.921875 -68.960938 76.976562 -70.226562 78.0625 -71.125 C 79.15625 -72.019531 79.796875 -72.609375 79.984375 -72.890625 C 79.023438 -73.273438 76.191406 -73.175781 71.484375 -72.59375 C 66.773438 -72.019531 60.25 -70.457031 51.90625 -67.90625 C 50.507812 -67.46875 49.132812 -67.03125 47.78125 -66.59375 C 46.425781 -66.164062 45.070312 -65.707031 43.71875 -65.21875 C 42.945312 -61.550781 42.039062 -57.316406 41 -52.515625 C 39.96875 -47.710938 38.847656 -42.5625 37.640625 -37.0625 C 36.773438 -33.195312 35.867188 -29.09375 34.921875 -24.75 C 33.984375 -20.414062 33.054688 -16.023438 32.140625 -11.578125 C 35.234375 -12.453125 38.15625 -13.082031 40.90625 -13.46875 C 43.65625 -13.851562 46.140625 -14.019531 48.359375 -13.96875 C 48.742188 -13.96875 49.066406 -13.820312 49.328125 -13.53125 C 49.597656 -13.25 49.734375 -12.914062 49.734375 -12.53125 C 49.734375 -12.132812 49.585938 -11.800781 49.296875 -11.53125 C 49.003906 -11.269531 48.664062 -11.140625 48.28125 -11.140625 C 46.007812 -11.191406 43.4375 -11.007812 40.5625 -10.59375 C 37.695312 -10.1875 34.671875 -9.476562 31.484375 -8.46875 C 30.472656 -3.882812 29.519531 0.625 28.625 5.0625 C 27.738281 9.507812 26.90625 13.695312 26.125 17.625 C 25.351562 21.5625 24.703125 25.070312 24.171875 28.15625 C 23.640625 31.25 23.253906 33.785156 23.015625 35.765625 C 23.117188 35.523438 23.21875 35.304688 23.3125 35.109375 C 23.457031 34.722656 23.707031 34.457031 24.0625 34.3125 C 24.425781 34.164062 24.800781 34.164062 25.1875 34.3125 C 25.53125 34.457031 25.773438 34.707031 25.921875 35.0625 C 26.066406 35.425781 26.066406 35.78125 25.921875 36.125 C 25.140625 38.007812 24.457031 39.410156 23.875 40.328125 C 23.300781 41.242188 22.675781 41.703125 22 41.703125 C 21.8125 41.703125 21.617188 41.648438 21.421875 41.546875 C 20.941406 41.398438 20.59375 41.070312 20.375 40.5625 C 20.15625 40.0625 20.070312 39.179688 20.125 37.921875 C 20.175781 36.671875 20.367188 34.84375 20.703125 32.4375 C 21.328125 28.09375 22.4375 21.816406 24.03125 13.609375 C 24.65625 10.421875 25.34375 7.039062 26.09375 3.46875 C 26.84375 -0.09375 27.601562 -3.734375 28.375 -7.453125 C 25.238281 -6.296875 22.050781 -4.820312 18.8125 -3.03125 C 15.582031 -1.25 12.445312 0.894531 9.40625 3.40625 C 9.164062 3.59375 8.878906 3.6875 8.546875 3.6875 C 8.109375 3.6875 7.742188 3.519531 7.453125 3.1875 C 7.210938 2.894531 7.113281 2.554688 7.15625 2.171875 C 7.207031 1.785156 7.378906 1.472656 7.671875 1.234375 C 11.097656 -1.617188 14.632812 -4.007812 18.28125 -5.9375 C 21.925781 -7.863281 25.53125 -9.429688 29.09375 -10.640625 C 30.0625 -15.128906 31.039062 -19.664062 32.03125 -24.25 C 33.019531 -28.832031 33.972656 -33.320312 34.890625 -37.71875 C 36.003906 -42.78125 37.054688 -47.554688 38.046875 -52.046875 C 39.035156 -56.535156 39.890625 -60.566406 40.609375 -64.140625 C 33.953125 -61.679688 27.628906 -58.988281 21.640625 -56.0625 C 15.660156 -53.144531 10.378906 -50.164062 5.796875 -47.125 C 5.546875 -46.976562 5.28125 -46.90625 5 -46.90625 C 4.507812 -46.90625 4.125 -47.097656 3.84375 -47.484375 C 3.644531 -47.828125 3.582031 -48.175781 3.65625 -48.53125 C 3.726562 -48.894531 3.929688 -49.195312 4.265625 -49.4375 C 9.097656 -52.675781 14.695312 -55.828125 21.0625 -58.890625 C 27.4375 -61.953125 34.171875 -64.765625 41.265625 -67.328125 C 41.648438 -69.160156 41.960938 -70.75 42.203125 -72.09375 C 42.296875 -72.488281 42.5 -72.789062 42.8125 -73 C 43.132812 -73.21875 43.488281 -73.28125 43.875 -73.1875 C 44.257812 -73.132812 44.554688 -72.953125 44.765625 -72.640625 C 44.984375 -72.328125 45.046875 -71.976562 44.953125 -71.59375 C 44.765625 -70.625 44.570312 -69.5625 44.375 -68.40625 C 45.34375 -68.75 46.320312 -69.078125 47.3125 -69.390625 C 48.300781 -69.703125 49.273438 -70.003906 50.234375 -70.296875 C 53.234375 -71.210938 56.335938 -72.09375 59.546875 -72.9375 C 62.753906 -73.78125 65.828125 -74.46875 68.765625 -75 C 71.710938 -75.53125 74.316406 -75.84375 76.578125 -75.9375 C 78.847656 -76.03125 80.492188 -75.8125 81.515625 -75.28125 Z M 81.515625 -75.28125 "/></g></g></g><g fill="#f0f5f7" fill-opacity="1"><g transform="translate(117.602243, 124.658453)"><g><path d="M 24.46875 -16.140625 C 24.800781 -15.953125 24.992188 -15.660156 25.046875 -15.265625 C 25.097656 -14.878906 25.023438 -14.546875 24.828125 -14.265625 C 21.984375 -10.304688 19.378906 -7.035156 17.015625 -4.453125 C 14.648438 -1.867188 12.285156 0.265625 9.921875 1.953125 C 8.128906 3.210938 6.367188 3.84375 4.640625 3.84375 C 3.285156 3.84375 2.097656 3.476562 1.078125 2.75 C 0.410156 2.269531 -0.242188 1.410156 -0.890625 0.171875 C -1.546875 -1.054688 -1.898438 -2.835938 -1.953125 -5.171875 C -2.003906 -7.515625 -1.425781 -10.59375 -0.21875 -14.40625 C -0.21875 -14.40625 -0.21875 -14.429688 -0.21875 -14.484375 C 1.226562 -19.109375 2.925781 -22.640625 4.875 -25.078125 C 6.832031 -27.515625 8.515625 -28.757812 9.921875 -28.8125 C 11.023438 -28.863281 11.75 -28.378906 12.09375 -27.359375 C 12.625 -25.960938 11.992188 -23.972656 10.203125 -21.390625 C 8.421875 -18.804688 5.789062 -16.066406 2.3125 -13.171875 C 1.25 -9.796875 0.742188 -7.15625 0.796875 -5.25 C 0.847656 -3.34375 1.113281 -1.96875 1.59375 -1.125 C 2.070312 -0.28125 2.457031 0.257812 2.75 0.5 C 4.195312 1.5625 6.054688 1.273438 8.328125 -0.359375 C 10.546875 -1.898438 12.785156 -3.914062 15.046875 -6.40625 C 17.316406 -8.894531 19.804688 -12.046875 22.515625 -15.859375 C 22.753906 -16.140625 23.066406 -16.316406 23.453125 -16.390625 C 23.835938 -16.460938 24.175781 -16.378906 24.46875 -16.140625 Z M 9.40625 -25.765625 C 8.875 -25.429688 8.148438 -24.71875 7.234375 -23.625 C 6.316406 -22.539062 5.378906 -20.960938 4.421875 -18.890625 C 6.148438 -20.578125 7.375 -22.007812 8.09375 -23.1875 C 8.820312 -24.375 9.257812 -25.234375 9.40625 -25.765625 Z M 9.40625 -25.765625 "/></g></g></g><g fill="#f0f5f7" fill-opacity="1"><g transform="translate(138.666392, 124.658453)"><g><path d="M 31.78125 -16.4375 C 32.113281 -16.238281 32.351562 -15.957031 32.5 -15.59375 C 32.644531 -15.238281 32.625 -14.890625 32.4375 -14.546875 C 31.519531 -12.566406 30.394531 -10.347656 29.0625 -7.890625 C 27.738281 -5.429688 26.328125 -2.957031 24.828125 -0.46875 C 23.328125 2.007812 21.804688 4.273438 20.265625 6.328125 C 18.722656 8.378906 17.226562 10.046875 15.78125 11.328125 C 14.332031 12.609375 13.03125 13.25 11.875 13.25 C 11.53125 13.25 11.21875 13.175781 10.9375 13.03125 C 9.914062 12.644531 9.25 11.726562 8.9375 10.28125 C 8.625 8.832031 8.660156 6.753906 9.046875 4.046875 C 9.722656 -0.816406 11.507812 -7.71875 14.40625 -16.65625 C 14.351562 -16.65625 14.316406 -16.640625 14.296875 -16.609375 C 14.273438 -16.585938 14.238281 -16.578125 14.1875 -16.578125 C 13.21875 -15.898438 12.054688 -15.195312 10.703125 -14.46875 C 9.359375 -13.75 7.960938 -13.269531 6.515625 -13.03125 C 5.066406 -12.789062 3.691406 -13.101562 2.390625 -13.96875 C 0.554688 -15.269531 -0.378906 -17.078125 -0.421875 -19.390625 C -0.472656 -21.710938 0.390625 -24.25 2.171875 -27 C 2.753906 -27.875 3.515625 -28.835938 4.453125 -29.890625 C 5.390625 -30.953125 6.375 -31.773438 7.40625 -32.359375 C 8.445312 -32.941406 9.378906 -32.96875 10.203125 -32.4375 C 10.640625 -32.1875 10.96875 -31.769531 11.1875 -31.1875 C 11.40625 -30.613281 11.390625 -29.722656 11.140625 -28.515625 C 10.898438 -27.316406 10.320312 -25.703125 9.40625 -23.671875 C 8.488281 -21.640625 7.113281 -19.007812 5.28125 -15.78125 C 6.394531 -15.632812 7.640625 -15.945312 9.015625 -16.71875 C 10.390625 -17.488281 11.609375 -18.210938 12.671875 -18.890625 C 13.679688 -19.566406 14.523438 -20.0625 15.203125 -20.375 C 15.878906 -20.6875 16.503906 -20.628906 17.078125 -20.203125 C 17.609375 -19.765625 17.828125 -19.226562 17.734375 -18.59375 C 17.640625 -17.96875 17.546875 -17.488281 17.453125 -17.15625 C 15.859375 -12.132812 14.625 -7.957031 13.75 -4.625 C 12.882812 -1.300781 12.296875 1.367188 11.984375 3.390625 C 11.671875 5.421875 11.515625 6.941406 11.515625 7.953125 C 11.515625 8.972656 11.582031 9.640625 11.71875 9.953125 C 11.863281 10.265625 11.9375 10.445312 11.9375 10.5 C 12.519531 10.59375 13.71875 9.660156 15.53125 7.703125 C 17.34375 5.753906 19.5 2.816406 22 -1.109375 C 24.507812 -5.046875 27.140625 -9.910156 29.890625 -15.703125 C 30.085938 -16.085938 30.363281 -16.34375 30.71875 -16.46875 C 31.082031 -16.59375 31.4375 -16.582031 31.78125 -16.4375 Z M 2.609375 -21.359375 C 2.316406 -20.335938 2.226562 -19.5 2.34375 -18.84375 C 2.46875 -18.195312 2.648438 -17.679688 2.890625 -17.296875 C 4.441406 -20.003906 5.613281 -22.203125 6.40625 -23.890625 C 7.195312 -25.578125 7.738281 -26.878906 8.03125 -27.796875 C 8.320312 -28.710938 8.492188 -29.363281 8.546875 -29.75 C 8.015625 -29.457031 7.347656 -28.898438 6.546875 -28.078125 C 5.753906 -27.265625 4.984375 -26.273438 4.234375 -25.109375 C 3.484375 -23.953125 2.941406 -22.703125 2.609375 -21.359375 Z M 2.609375 -21.359375 "/></g></g></g></svg>